<svg xmlns="http://www.w3.org/2000/svg" width="127" height="128" viewBox="0 0 127 128" version="1.1"><path d="M 13.852 2.016 L 10.205 3.943 6.486 8.221 C 4.440 10.575, 2.144 13.948, 1.383 15.718 L 0 18.936 -0 64.736 L -0 110.536 2.640 114.518 C 4.091 116.708, 6.454 119.779, 7.890 121.342 C 9.325 122.904, 12.170 125.042, 14.210 126.092 L 17.920 128 64 128 L 110.080 128 113.932 126.034 L 117.785 124.069 121.509 119.784 C 123.558 117.428, 125.856 114.052, 126.617 112.282 L 128 109.064 128 63.172 L 128 17.279 125.398 13.390 C 123.967 11.250, 121.605 8.221, 120.148 6.658 C 118.692 5.096, 115.830 2.958, 113.790 1.908 L 110.080 0 63.790 0.044 L 17.500 0.088 13.852 2.016 M 25 4.719 C 23.625 4.925, 21.049 5.844, 19.275 6.761 C 17.501 7.678, 15.834 8.990, 15.571 9.676 L 15.092 10.924 26.296 21.939 L 37.500 32.954 63.914 32.977 L 90.328 33 100.247 23.250 C 105.703 17.887, 110.804 12.905, 111.583 12.179 C 112.363 11.452, 113 10.671, 113 10.443 C 113 10.215, 111.120 8.784, 108.823 7.264 L 104.646 4.500 66.073 4.422 C 44.858 4.379, 26.375 4.512, 25 4.719 M 7.652 15.832 L 5.994 17.664 4.949 23.319 L 3.903 28.975 4.202 67.237 L 4.500 105.500 6.597 109.500 L 8.694 113.500 10.148 113.785 L 11.602 114.070 23.268 102.153 L 34.934 90.235 35.217 63.868 L 35.500 37.500 23.781 25.750 L 12.062 14 10.686 14 C 9.929 14, 8.564 14.824, 7.652 15.832 M 102.982 26.018 L 90.904 38.036 91.360 38.774 C 91.611 39.179, 91.925 50.534, 92.057 64.006 L 92.298 88.500 93.826 90.985 C 94.667 92.352, 100.081 98.089, 105.858 103.735 L 116.362 114 117.658 114 L 118.954 114 120.727 111.293 L 122.500 108.586 122.500 63.999 L 122.500 19.411 120.727 16.705 L 118.954 14 117.006 14 L 115.059 14 102.982 26.018 M 0.462 64.500 L 0.461 111.500 0.749 88.319 C 0.907 75.569, 0.907 54.419, 0.749 41.319 L 0.462 17.500 0.462 64.500 M 40.502 38.997 L 39.885 39.995 39.889 63.658 L 39.893 87.321 41.483 88.911 L 43.073 90.500 63.884 90.500 L 84.694 90.500 86.347 89.128 L 88 87.755 88 64.459 L 88 41.164 87.393 39.582 L 86.786 38 63.952 38 L 41.118 38 40.502 38.997 M 25.343 106.198 L 13.669 117.896 14.880 119.356 C 15.547 120.159, 17.602 121.532, 19.447 122.408 L 22.802 124 63.500 124 L 104.198 124 107.349 122.467 C 109.082 121.624, 111.368 120.277, 112.430 119.475 L 114.359 118.017 108.024 112.284 C 104.540 109.131, 99.847 104.553, 97.595 102.110 C 95.343 99.668, 92.800 97.044, 91.945 96.280 L 90.390 94.890 63.704 94.695 L 37.018 94.500 25.343 106.198" stroke="none" fill="#0e0a09" fill-rule="evenodd"/><path d="M 25 4.719 C 23.625 4.925, 21.049 5.844, 19.275 6.761 C 17.501 7.678, 15.834 8.990, 15.571 9.676 L 15.092 10.924 26.296 21.939 L 37.500 32.954 63.914 32.977 L 90.328 33 100.247 23.250 C 105.703 17.887, 110.804 12.905, 111.583 12.179 C 112.363 11.452, 113 10.671, 113 10.443 C 113 10.215, 111.120 8.784, 108.823 7.264 L 104.646 4.500 66.073 4.422 C 44.858 4.379, 26.375 4.512, 25 4.719 M 7.652 15.832 L 5.994 17.664 4.949 23.319 L 3.903 28.975 4.202 67.237 L 4.500 105.500 6.597 109.500 L 8.694 113.500 10.148 113.785 L 11.602 114.070 23.268 102.153 L 34.934 90.235 35.217 63.868 L 35.500 37.500 23.781 25.750 L 12.062 14 10.686 14 C 9.929 14, 8.564 14.824, 7.652 15.832 M 102.982 26.018 L 90.904 38.036 91.360 38.774 C 91.611 39.179, 91.925 50.534, 92.057 64.006 L 92.298 88.500 93.826 90.985 C 94.667 92.352, 100.081 98.089, 105.858 103.735 L 116.362 114 117.658 114 L 118.954 114 120.727 111.293 L 122.500 108.586 122.500 63.999 L 122.500 19.411 120.727 16.705 L 118.954 14 117.006 14 L 115.059 14 102.982 26.018 M 40.459 39.067 C 40.096 39.653, 39.957 40.283, 40.150 40.466 C 40.342 40.649, 41.080 40.169, 41.789 39.399 L 43.079 38 42.098 38 C 41.559 38, 40.821 38.480, 40.459 39.067 M 85.750 39.833 C 86.713 40.842, 87.623 41.581, 87.774 41.476 C 87.924 41.372, 87.763 40.547, 87.417 39.643 L 86.786 38 85.393 38 L 84 38 85.750 39.833 M 39 46.500 C 39 46.775, 39.225 47, 39.500 47 C 39.775 47, 40 46.775, 40 46.500 C 40 46.225, 39.775 46, 39.500 46 C 39.225 46, 39 46.225, 39 46.500 M 39 56.500 C 39 56.775, 39.225 57, 39.500 57 C 39.775 57, 40 56.775, 40 56.500 C 40 56.225, 39.775 56, 39.500 56 C 39.225 56, 39 56.225, 39 56.500 M 87.079 86.282 L 87 88.064 84.750 88.969 L 82.500 89.873 84.128 89.937 L 85.755 90 86.972 88.534 L 88.189 87.067 87.673 85.784 L 87.158 84.500 87.079 86.282 M 40.722 88.050 C 41.944 89.337, 43.138 90.189, 43.374 89.944 C 43.611 89.700, 42.611 88.648, 41.152 87.606 L 38.500 85.712 40.722 88.050 M 45.333 90.667 L 46 91.333 46.667 90.667 L 47.333 90 46 90 L 44.667 90 45.333 90.667 M 25.343 106.198 L 13.669 117.896 14.880 119.356 C 15.547 120.159, 17.602 121.532, 19.447 122.408 L 22.802 124 63.500 124 L 104.198 124 107.349 122.467 C 109.082 121.624, 111.368 120.277, 112.430 119.475 L 114.359 118.017 108.024 112.284 C 104.540 109.131, 99.847 104.553, 97.595 102.110 C 95.343 99.668, 92.800 97.044, 91.945 96.280 L 90.390 94.890 63.704 94.695 L 37.018 94.500 25.343 106.198" stroke="none" fill="#ae8760" fill-rule="evenodd"/></svg>